<svg xmlns="http://www.w3.org/2000/svg" xml:space="preserve" width="800" height="800" viewBox="0 0 512 512"><path d="M347.463 488.453v-33.16c0-13.004-10.543-23.547-23.547-23.547-13.004 0-23.547 10.543-23.547 23.547v33.16c0 13.004 10.543 23.547 23.547 23.547 13.004 0 23.547-10.543 23.547-23.547zM488.455 300.37l-33.162-.002h-.002c-13.003 0-23.547 10.543-23.547 23.545 0 13.004 10.541 23.549 23.545 23.549l33.162.002h.002c13.003 0 23.547-10.543 23.547-23.545 0-13.006-10.541-23.547-23.545-23.549zM440.262 463.81c6.025 0 12.053-2.3 16.651-6.898 9.194-9.194 9.196-24.103.002-33.3l-23.45-23.45c-9.196-9.196-24.104-9.196-33.302-.002-9.194 9.196-9.196 24.106-.002 33.302l23.45 23.45a23.466 23.466 0 0 0 16.651 6.898z" style="fill:#ffb655"/><path d="M211.63 23.547C211.63 10.543 201.087 0 188.083 0s-23.547 10.543-23.547 23.547v33.16c0 13.004 10.543 23.547 23.547 23.547s23.547-10.543 23.547-23.547v-33.16zM56.706 211.631c13.003 0 23.547-10.543 23.547-23.545 0-13.004-10.541-23.549-23.545-23.549l-33.159-.002h-.002C10.544 164.536 0 175.078 0 188.081c0 13.006 10.541 23.547 23.545 23.549l33.161.001s-.002 0 0 0zM55.086 55.087c-9.194 9.194-9.196 24.103-.002 33.3l23.45 23.45c4.6 4.598 10.626 6.898 16.651 6.898s12.053-2.3 16.651-6.896c9.194-9.196 9.196-24.106.002-33.302l-23.45-23.45c-9.199-9.195-24.108-9.197-33.302 0z" style="fill:#ee8700"/><path d="M156.098 473.637c31.446 0 61.015-12.248 83.25-34.484l.016-.017 66.586-66.586c9.196-9.194 9.196-24.104 0-33.3-9.194-9.196-24.104-9.196-33.3 0l-66.589 66.589a.114.114 0 0 1-.016.014c-13.34 13.342-31.079 20.69-49.946 20.69-18.871 0-36.608-7.348-49.951-20.69-27.542-27.544-27.542-72.36 0-99.904l66.6-66.6c9.196-9.194 9.196-24.104 0-33.3-9.194-9.196-24.104-9.196-33.3 0l-66.6 66.6c-45.904 45.904-45.904 120.597 0 166.504 22.236 22.237 51.802 34.484 83.25 34.484zM439.15 72.847c-22.235-22.236-51.8-34.484-83.248-34.484h-.002c-31.446 0-61.013 12.248-83.25 34.484l-.002.002-.002.002-66.6 66.6c-9.196 9.194-9.196 24.104 0 33.3a23.473 23.473 0 0 0 16.649 6.898c6.026 0 12.053-2.3 16.649-6.898l66.6-66.6.002-.002.002-.002c13.342-13.342 31.082-20.69 49.951-20.69s36.606 7.348 49.948 20.69c27.544 27.544 27.544 72.36 0 99.904l-66.6 66.6c-9.196 9.196-9.196 24.104 0 33.3a23.473 23.473 0 0 0 16.649 6.898c6.026 0 12.053-2.3 16.649-6.898l66.6-66.6c45.911-45.906 45.911-120.6.005-166.504z" style="fill:#424ede"/><path d="M72.847 439.155c22.238 22.235 51.803 34.482 83.251 34.482 31.446 0 61.015-12.248 83.25-34.484l.016-.017 66.586-66.586c9.196-9.194 9.196-24.104 0-33.3-9.194-9.196-24.104-9.196-33.3 0l-66.589 66.589a.114.114 0 0 1-.016.014c-13.34 13.342-31.079 20.69-49.946 20.69-18.871 0-36.608-7.348-49.951-20.69-.165-.165-.316-.337-.477-.502l-33.3 33.3c.162.166.311.339.476.504zM438.649 72.371l-33.3 33.3c.165.162.337.312.501.477 27.544 27.544 27.544 72.36 0 99.904l-66.6 66.6c-9.196 9.194-9.196 24.104 0 33.3a23.473 23.473 0 0 0 16.649 6.898 23.47 23.47 0 0 0 16.649-6.898l66.6-66.6c45.906-45.904 45.906-120.598 0-166.503-.161-.166-.334-.316-.499-.478z" style="fill:#6e76e5"/></svg>